#!OML:ASF E:\motion texture\Top Level 1\Subject 1\Session 1\male.ASF
:FULLY-SPECIFIED
:DEGREES
348
root -16.7078 17.8922 4.11958 418.133 -81.3406 -412.437
lowerback -0.14508 -0.693086 6.7297
upperback 1.38805 -1.16161 4.3126
thorax 1.47889 -0.576107 0.657419
lowerneck -13.7398 0.468432 -3.92477
upperneck 30.4843 2.95219 -6.67697
head 12.475 -0.338101 -1.51145
rclavicle 1.19271e-015 -5.08889e-014
rhumerus -8.94234 -34.9579 -68.3335
rradius 61.0603
rwrist -39.9494
rhand -11.9908 -37.8341
rfingers 7.12502
rthumb 14.0658 -67.3381
lclavicle 1.19271e-015 -5.08889e-014
lhumerus -24.5196 39.7052 73.4617
lradius 43.8719
lwrist 41.8233
lhand -11.8756 38.2567
lfingers 7.12502
lthumb 14.1768 67.753
rfemur -23.8056 2.12727 29.6683
rtibia 23.5698
rfoot -1.80602 -7.62086
rtoes 21.6405
lfemur -16.7361 -0.190781 -9.19221
ltibia 62.1901
lfoot 9.39331 -9.48755
ltoes -9.32605
349
root -16.8732 17.9172 4.0996 419.254 -81.3167 -413.666
lowerback -0.166918 -0.625686 6.78713
upperback 1.32372 -1.06914 4.30058
thorax 1.42698 -0.531153 0.614379
lowerneck -13.7703 0.442263 -3.86331
upperneck 30.3543 2.85431 -6.50539
head 12.4208 -0.342122 -1.46556
rclavicle 1.0138e-014 -1.90833e-014
rhumerus -9.87939 -34.6325 -67.8796
rradius 61.4753
rwrist -39.675
rhand -12.014 -37.6295
rfingers 7.12502
rthumb 14.0435 -67.135
lclavicle 1.0138e-014 -1.90833e-014
lhumerus -25.1703 39.6925 72.9662
lradius 44.048
lwrist 41.4491
lhand -11.8048 37.9149
lfingers 7.12502
lthumb 14.2451 67.4064
rfemur -22.8197 2.37475 30.0012
rtibia 23.1415
rfoot -2.18824 -7.67527
rtoes 21.7014
lfemur -17.7187 0.400907 -8.85883
ltibia 63.3717
lfoot 8.51077 -8.91521
ltoes -9.86909
350
root -17.0382 17.9429 4.07994 420.311 -81.3185 -414.797
lowerback -0.230521 -0.555414 6.82209
upperback 1.25833 -0.975762 4.27099
thorax 1.39765 -0.485046 0.565132
lowerneck -13.8038 0.420122 -3.79713
upperneck 30.2151 2.7644 -6.34394
head 12.3643 -0.343154 -1.42321
rclavicle -3.97569e-016 -1.35174e-014
rhumerus -10.8139 -34.2411 -67.4964
rradius 62.007
rwrist -39.4686
rhand -12.2012 -37.5216
rfingers 7.12502
rthumb 13.8631 -67.0395
lclavicle -3.97569e-016 -1.35174e-014
lhumerus -25.8577 39.5856 72.5148
lradius 44.4696
lwrist 41.2288
lhand -11.7182 37.5116
lfingers 7.12502
lthumb 14.3285 66.9972
rfemur -21.8625 2.60879 30.2956
rtibia 22.697
rfoot -2.55906 -7.72599
rtoes 21.7584
lfemur -18.7129 0.997556 -8.57724
ltibia 64.4095
lfoot 7.61906 -8.33078
ltoes -10.1513
351
root -17.2027 17.9688 4.06095 421.31 -81.3406 -415.844
lowerback -0.330607 -0.486117 6.83763
upperback 1.18712 -0.886133 4.23112
thorax 1.38289 -0.440474 0.515663
lowerneck -13.8075 0.404899 -3.73556
upperneck 30.0653 2.68558 -6.19377
head 12.2983 -0.340935 -1.3827
rclavicle 4.67144e-015 1.74931e-014
rhumerus -11.7447 -33.7893 -67.1776
rradius 62.6315
rwrist -39.3382
rhand -12.4931 -37.4752
rfingers 7.12502
rthumb 13.5818 -67.0122
lclavicle 4.67144e-015 1.74931e-014
lhumerus -26.5944 39.3949 72.0998
lradius 45.1082
lwrist 41.1725
lhand -11.6546 37.1194
lfingers 7.12502
lthumb 14.3898 66.6006
rfemur -20.9214 2.81853 30.555
rtibia 22.2253
rfoot -2.90979 -7.76304
rtoes 21.8386
lfemur -19.7063 1.57876 -8.34753
ltibia 65.2925
lfoot 6.78793 -7.7642
ltoes -10.1886
352
root -17.3663 17.9947 4.04296 422.271 -81.3784 -416.835
lowerback -0.455296 -0.417709 6.84007
upperback 1.12119 -0.800218 4.18594
thorax 1.38752 -0.397248 0.467844
lowerneck -13.8173 0.395594 -3.68169
upperneck 29.9161 2.62249 -6.05892
head 12.2348 -0.335124 -1.34479
rclavicle 7.45443e-015 4.77083e-015
rhumerus -12.6428 -33.3024 -66.9301
rradius 63.3245
rwrist -39.2563
rhand -12.8013 -37.4473
rfingers 7.12502
rthumb 13.2847 -67.0039
lclavicle 7.45443e-015 4.77083e-015
lhumerus -27.3366 39.1506 71.7404
lradius 45.9118
lwrist 41.2466
lhand -11.5941 36.7511
lfingers 7.12502
lthumb 14.4481 66.2282
rfemur -19.9919 2.99391 30.7837
rtibia 21.7286
rfoot -3.233 -7.77296
rtoes 21.9309
lfemur -20.691 2.13176 -8.16715
ltibia 66.0175
lfoot 6.03571 -7.22671
ltoes -10.1618
353
root -17.5286 18.0203 4.02607 423.249 -81.4234 -417.834
lowerback -0.588895 -0.349633 6.8405
upperback 1.05733 -0.715852 4.14079
thorax 1.39942 -0.354656 0.421308
lowerneck -13.8246 0.392573 -3.63702
upperneck 29.7714 2.57515 -5.93987
head 12.1738 -0.326089 -1.30946
rclavicle 2.48481e-015 1.43125e-014
rhumerus -13.5148 -32.7879 -66.7416
rradius 64.0663
rwrist -39.2029
rhand -13.1663 -37.4481
rfingers 7.12502
rthumb 12.9329 -67.0273
lclavicle 2.48481e-015 1.43125e-014
lhumerus -28.0849 38.8626 71.4267
lradius 46.835
lwrist 41.415
lhand -11.5312 36.4062
lfingers 7.12502
lthumb 14.5087 65.8789
rfemur -19.0687 3.14218 30.9946
rtibia 21.2125
rfoot -3.5219 -7.75003
rtoes 21.9802
lfemur -21.6587 2.64831 -8.02351
ltibia 66.5886
lfoot 5.37232 -6.7185
ltoes -10.1526
354
root -17.6899 18.0451 4.01043 424.24 -81.4728 -418.847
lowerback -0.72664 -0.282579 6.8422
upperback 0.995544 -0.633566 4.09643
thorax 1.41587 -0.313019 0.375078
lowerneck -13.8109 0.394734 -3.6005
upperneck 29.6313 2.53975 -5.83712
head 12.1112 -0.315347 -1.27757
rclavicle 7.55382e-015 -3.73715e-014
rhumerus -14.3716 -32.2584 -66.6037
rradius 64.84
rwrist -39.1503
rhand -13.2512 -37.3315
rfingers 7.12502
rthumb 12.8511 -66.9159
lclavicle 7.55382e-015 -3.73715e-014
lhumerus -28.8359 38.5443 71.1482
lradius 47.8323
lwrist 41.6242
lhand -11.4302 36.0823
lfingers 7.12502
lthumb 14.6061 65.548
rfemur -18.1406 3.26594 31.1894
rtibia 20.6788
rfoot -3.78242 -7.69774
rtoes 22.0177
lfemur -22.5921 3.11671 -7.91371
ltibia 67.0041
lfoot 4.79869 -6.23507
ltoes -10.1719
